<svg id="SvgjsSvg1000" xmlns="http://www.w3.org/2000/svg" version="1.1" xmlns:xlink="http://www.w3.org/1999/xlink" xmlns:svgjs="http://svgjs.com/svgjs" width="100%" height="100%" viewBox="0 0 47 45"><defs id="SvgjsDefs1001"></defs><path id="SvgjsPath1007" d="M1016.44 940C1017.0500000000001 940.131 1017.6600000000001 940.25 1018.2600000000001 940.394C1022.9200000000001 941.506 1026.1100000000001 945.903 1025.8000000000002 950.774C1025.6900000000003 952.46 1026.2500000000002 953.864 1027.42 955.049C1034.49 962.179 1041.5500000000002 969.316 1048.6200000000001 976.452C1050.5200000000002 978.369 1050.8000000000002 980.815 1049.3600000000001 982.851C1048.7400000000002 983.716 1047.92 984.294 1046.92 984.606C1046.66 984.685 1046.41 984.782 1046.16 984.871C1045.7900000000002 984.871 1045.42 984.871 1045.0400000000002 984.871C1043.88 984.53 1042.8400000000001 984.012 1041.9500000000003 983.11C1034.9400000000003 975.988 1027.9000000000003 968.905 1020.8800000000002 961.785C1019.6200000000002 960.4979999999999 1018.1500000000002 959.976 1016.4000000000002 960.0989999999999C1011.8400000000003 960.4179999999999 1007.4600000000002 957.1479999999999 1006.3700000000002 952.616C1006.2300000000002 952.048 1006.1200000000002 951.473 1006.0000000000002 950.901C1006.0000000000002 950.394 1006.0000000000002 949.887 1006.0000000000002 949.38C1006.1700000000002 948.55 1006.3500000000003 947.72 1006.5400000000002 946.7909999999999C1006.8100000000002 947.049 1006.9900000000002 947.2159999999999 1007.1600000000002 947.3889999999999C1008.9500000000002 949.1999999999999 1010.7500000000002 951.0049999999999 1012.5300000000002 952.8319999999999C1012.8300000000002 953.1399999999999 1013.1200000000002 953.2619999999998 1013.5200000000002 953.1389999999999C1016.2000000000002 952.3029999999999 1017.9700000000003 950.4989999999999 1018.9000000000002 947.8259999999999C1019.0600000000002 947.3639999999999 1018.9400000000002 946.9659999999999 1018.5500000000002 946.5889999999999C1017.2600000000002 945.3399999999999 1016.0100000000002 944.0429999999999 1014.7500000000002 942.766C1014.0800000000003 942.086 1013.4000000000002 941.41 1012.6300000000002 940.634C1013.6500000000002 940.404 1014.5500000000002 940.202 1015.4500000000003 940C1015.7800000000003 940 1016.1100000000002 940 1016.4400000000003 940ZM1045.35 977.878C1044.29 977.879 1043.4499999999998 978.712 1043.4399999999998 979.774C1043.4299999999998 980.815 1044.2899999999997 981.699 1045.33 981.714C1046.3799999999999 981.729 1047.28 980.83 1047.27 979.7650000000001C1047.26 978.7060000000001 1046.41 977.8760000000001 1045.35 977.8780000000002ZM1053 949.38C1052.46 949.902 1051.91 950.415 1051.39 950.948C1047.6200000000001 954.751 1043.8500000000001 958.558 1040.0900000000001 962.3629999999999C1039.94 962.511 1039.7900000000002 962.6529999999999 1039.64 962.8019999999999C1039 962.122 1038.3700000000001 961.4549999999999 1037.64 960.675C1037.91 960.4399999999999 1038.26 960.175 1038.5700000000002 959.866C1041.8000000000002 956.619 1045.0200000000002 953.364 1048.2400000000002 950.111C1048.3200000000002 950.037 1048.3900000000003 949.963 1048.4600000000003 949.887C1048.8900000000003 949.433 1048.9400000000003 948.958 1048.6000000000004 948.602C1048.2500000000005 948.2289999999999 1047.7500000000005 948.264 1047.2900000000004 948.725C1045.6100000000004 950.413 1043.9300000000005 952.1080000000001 1042.2600000000004 953.803C1040.4000000000005 955.676 1038.5500000000004 957.553 1036.7000000000005 959.427C1036.6300000000006 959.499 1036.5600000000004 959.565 1036.4800000000005 959.634C1035.8700000000006 958.995 1035.2900000000004 958.3820000000001 1034.7500000000005 957.8240000000001C1036.8200000000004 955.6750000000001 1038.9000000000005 953.5000000000001 1041.0000000000005 951.344C1042.4700000000005 949.83 1043.9700000000005 948.344 1045.4600000000005 946.841C1045.9000000000005 946.392 1045.9500000000005 945.926 1045.6100000000006 945.563C1045.2600000000007 945.182 1044.7800000000007 945.218 1044.3100000000006 945.66C1044.2500000000007 945.717 1044.1900000000007 945.776 1044.1300000000006 945.836C1041.8500000000006 948.141 1039.5600000000006 950.439 1037.3000000000006 952.756C1036.0400000000006 954.039 1034.8200000000006 955.356 1033.5900000000006 956.641C1032.8700000000006 955.884 1032.2400000000007 955.2239999999999 1031.7600000000007 954.718C1036.0500000000006 950.2199999999999 1040.4200000000008 945.644 1044.8900000000008 940.972C1046.020000000001 942.168 1047.0600000000009 943.287 1048.1300000000008 944.3729999999999C1049.7400000000007 946.011 1051.3800000000008 947.627 1053.0000000000007 949.2529999999999C1053.0000000000007 949.295 1053.0000000000007 949.3369999999999 1053.0000000000007 949.3799999999999ZM1023.43 968.914C1024.1399999999999 969.663 1024.72 970.281 1025.21 970.799C1022.9200000000001 973.194 1020.61 975.611 1018.2900000000001 978.028C1018.0600000000001 978.27 1017.8100000000001 978.496 1017.59 978.7470000000001C1017.27 979.1080000000001 1017.22 979.5070000000001 1017.5600000000001 979.8770000000001C1017.9200000000001 980.2650000000001 1018.34 980.273 1018.72 979.9240000000001C1019.24 979.4430000000001 1019.73 978.9300000000001 1020.23 978.4180000000001C1022.29 976.2820000000002 1024.35 974.1410000000001 1026.43 971.9770000000001C1027.14 972.767 1027.77 973.455 1028.3100000000002 974.0520000000001C1026.2200000000003 976.2370000000001 1024.0000000000002 978.4520000000001 1021.9000000000002 980.7860000000002C1020.6200000000002 982.2140000000002 1019.2200000000003 983.1010000000002 1017.2800000000002 983.3240000000002C1014.8400000000001 983.6050000000001 1012.4300000000002 984.1800000000002 1010.0100000000002 984.6270000000002C1009.9400000000002 984.6410000000002 1009.8600000000002 984.6510000000002 1009.6900000000002 984.6760000000002C1009.9300000000002 983.4410000000001 1010.1600000000002 982.2730000000001 1010.4000000000002 981.1060000000001C1010.8000000000002 979.1050000000001 1011.2000000000002 977.1030000000001 1011.6300000000002 975.1060000000001C1011.6900000000002 974.815 1011.8300000000003 974.4920000000001 1012.0300000000002 974.2860000000001C1014.7500000000002 971.5100000000001 1017.5000000000002 968.7520000000001 1020.2400000000002 965.99C1020.2800000000002 965.947 1020.3300000000003 965.916 1020.3900000000002 965.878C1021.0100000000002 966.5450000000001 1021.6400000000002 967.2090000000001 1022.3300000000003 967.95C1021.9600000000003 968.3090000000001 1021.5200000000003 968.6990000000001 1021.1100000000002 969.1120000000001C1019.0000000000002 971.2310000000001 1016.8900000000002 973.3520000000001 1014.8000000000003 975.488C1014.5900000000003 975.6980000000001 1014.3700000000003 976.014 1014.3700000000003 976.278C1014.3800000000003 976.528 1014.6300000000003 976.923 1014.8400000000004 976.986C1015.1200000000003 977.068 1015.5600000000004 976.986 1015.7800000000004 976.7959999999999C1016.4000000000004 976.2729999999999 1016.9500000000004 975.6629999999999 1017.5200000000004 975.0749999999999C1019.4800000000005 973.04 1021.4300000000004 970.9999999999999 1023.4300000000004 968.914Z " fill="#27354d" fill-opacity="1" transform="matrix(1,0,0,1,-1006,-940)"></path></svg>